<svg width="28" height="28" viewBox="0 0 28 28" fill="none" xmlns="http://www.w3.org/2000/svg">
<path d="M0.0754419 1.96378C-0.331558 0.698777 0.985442 -0.431223 2.17444 0.162777L27.1684 12.6578C28.2744 13.2108 28.2744 14.7878 27.1684 15.3418L2.17444 27.8368C0.986442 28.4308 -0.331558 27.3008 0.0754419 26.0358L3.94744 13.9998L0.0754419 1.96378ZM5.72544 14.9998L2.34444 25.5158L25.3814 13.9998L2.34344 2.48378L5.72744 12.9988H16.9974C17.2627 12.9988 17.517 13.1041 17.7045 13.2917C17.8921 13.4792 17.9974 13.7336 17.9974 13.9988C17.9974 14.264 17.8921 14.5183 17.7045 14.7059C17.517 14.8934 17.2627 14.9988 16.9974 14.9988H5.72744L5.72544 14.9998Z" fill="#A7A4A4"/>
</svg>
