<svg width="35" height="41" viewBox="0 0 35 41" fill="none" xmlns="http://www.w3.org/2000/svg">
<path d="M13.0819 4.35129L13.0817 4.3518C13.0101 4.54245 12.95 4.72865 12.8939 4.90485C12.7492 5.35977 12.6424 5.67916 12.4369 5.90056C12.4369 5.90056 12.4369 5.90057 12.4369 5.90058L7.81229 10.8814C5.96372 12.8717 4.91816 15.4577 4.86929 18.1615L4.78215 22.9706C4.77244 23.1081 4.70418 23.9968 4.51278 25.0562C4.3169 26.1403 3.99843 27.3647 3.50432 28.1558L1.23231 31.4456C0.65306 32.2835 0.591359 33.3629 1.06998 34.2609C1.54857 35.1589 2.48269 35.7147 3.5058 35.7147H12.3964C12.6738 38.2633 14.8583 40.25 17.5 40.25C20.1417 40.25 22.3262 38.2633 22.6036 35.7147H31.4942C32.5167 35.7147 33.4506 35.1579 33.9299 34.2612L33.93 34.2609C34.4086 33.3629 34.3469 32.2835 33.7677 31.4456L33.6449 31.2679L33.6433 31.2687L31.494 28.1566C30.9999 27.3655 30.6815 26.141 30.4856 25.0567C30.2942 23.9973 30.2259 23.1087 30.2162 22.9713L30.1282 18.1624C30.0794 15.4585 29.0338 12.8726 27.1853 10.8823C27.1853 10.8822 27.1853 10.8822 27.1852 10.8822L22.5606 5.90137L22.3774 6.07148L22.5606 5.90137C22.3819 5.70895 22.2861 5.42694 22.1527 5.01458C22.1526 5.01453 22.1526 5.01449 22.1526 5.01444L22.15 5.0063C22.0804 4.79091 22.0043 4.55541 21.9006 4.31529C20.5437 1.16591 18.3274 0.821945 17.9534 0.787354C17.8746 0.777994 17.6099 0.748924 17.3913 0.754109C17.2727 0.749604 17.19 0.749267 17.1356 0.75089C16.9034 0.746476 16.2202 0.779957 15.4282 1.24831C14.6243 1.72369 13.7312 2.63362 13.0819 4.35129ZM32.377 33.3654L32.3429 33.4294C32.1737 33.7469 31.8582 33.9357 31.4926 33.9357H3.50416C3.13847 33.9357 2.82303 33.7469 2.65381 33.4294C2.48462 33.112 2.50516 32.7503 2.71046 32.4533L2.71051 32.4532L4.99403 29.1473L4.99404 29.1473L4.99568 29.1449L5.0105 29.1229L5.01058 29.123L5.01451 29.1167C5.67093 28.0775 6.05507 26.5938 6.27759 25.3741C6.50156 24.1465 6.56782 23.1507 6.5731 23.0654L6.57334 23.0654L6.57353 23.0546L6.66244 18.1951C6.66244 18.1951 6.66244 18.1951 6.66244 18.1951C6.70411 15.9277 7.57992 13.7593 9.13111 12.0885L13.7558 7.10757L13.7558 7.10754C14.2399 6.58595 14.4394 5.95967 14.5999 5.45574L14.6042 5.44225L14.6043 5.44186L14.6104 5.42276C14.662 5.26177 14.7085 5.1165 14.7613 4.97702C15.2301 3.73766 15.8047 3.13235 16.2543 2.8343C16.6408 2.57807 16.9516 2.53783 17.0572 2.53129L17.0896 2.5409L17.1382 2.53615L17.1932 2.53078C17.217 2.53071 17.2649 2.53088 17.3449 2.53458C17.3453 2.53459 17.3457 2.53461 17.346 2.53462L17.3735 2.53615L17.3872 2.5369L17.4009 2.53615L17.429 2.5346C17.4292 2.53459 17.4294 2.53458 17.4296 2.53457C17.4906 2.53177 17.6554 2.54523 17.7551 2.55684L17.7551 2.55686L17.7584 2.5572L17.7979 2.56127L17.7984 2.56133C17.8449 2.56602 19.2632 2.72032 20.2528 5.01606C20.3214 5.17531 20.3775 5.34775 20.4415 5.54408L20.4461 5.55834L20.4464 5.5591L20.4492 5.56773C20.5995 6.03422 20.7873 6.61682 21.2434 7.10833L21.2434 7.10839L25.8681 12.0893C27.4193 13.7601 28.2959 15.9286 28.3367 18.1958L28.3367 18.1959L28.4248 23.0245V23.0508V23.0598L28.4254 23.0688L28.4261 23.0778C28.4352 23.2067 28.5042 24.1812 28.7221 25.3749C28.9447 26.5946 29.3286 28.0783 29.9846 29.1175L29.9844 29.1176L29.9903 29.1261L32.2885 32.4538C32.2885 32.4539 32.2886 32.4539 32.2886 32.4539C32.4796 32.7313 32.5107 33.0646 32.377 33.3654ZM17.4984 38.471C15.8435 38.471 14.4691 37.2756 14.2043 35.7155H20.7924C20.5275 37.275 19.1531 38.471 17.4984 38.471Z" fill="white" stroke="white" stroke-width="0.5"/>
</svg>
