<svg width="30" height="30" viewBox="0 0 30 30" fill="none" xmlns="http://www.w3.org/2000/svg">
<path d="M4.73684 0H25.2632C26.5194 0 27.7243 0.499059 28.6126 1.38739C29.5009 2.27572 30 3.48055 30 4.73684V18.9474C30 20.2037 29.5009 21.4085 28.6126 22.2968C27.7243 23.1852 26.5194 23.6842 25.2632 23.6842H18.0158L12.1737 29.5421C11.8895 29.8263 11.4947 30 11.0526 30C10.6339 30 10.2323 29.8336 9.93615 29.5375C9.64004 29.2414 9.47368 28.8398 9.47368 28.4211V23.6842H4.73684C3.48055 23.6842 2.27572 23.1852 1.38739 22.2968C0.499059 21.4085 0 20.2037 0 18.9474V4.73684C0 3.48055 0.499059 2.27572 1.38739 1.38739C2.27572 0.499059 3.48055 0 4.73684 0ZM25.2632 1.57895H4.73684C3.89932 1.57895 3.09609 1.91165 2.50387 2.50387C1.91165 3.09609 1.57895 3.89932 1.57895 4.73684V18.9474C1.57895 19.7849 1.91165 20.5881 2.50387 21.1803C3.09609 21.7726 3.89932 22.1053 4.73684 22.1053H11.0526V28.4211L17.3684 22.1053H25.2632C26.1007 22.1053 26.9039 21.7726 27.4961 21.1803C28.0883 20.5881 28.4211 19.7849 28.4211 18.9474V4.73684C28.4211 3.89932 28.0883 3.09609 27.4961 2.50387C26.9039 1.91165 26.1007 1.57895 25.2632 1.57895Z" fill="black"/>
</svg>
