<svg width="16" height="19" viewBox="0 0 16 19" fill="none" xmlns="http://www.w3.org/2000/svg">
<path d="M7.64397 0.692493L6.53407 0L6.32266 1.32904C5.98616 3.42761 4.60934 5.3776 3.09071 6.74791C0.117739 9.43167 -0.533231 12.3484 0.387289 14.7561C1.26817 17.0601 3.50384 18.6377 5.77299 18.9009L6.29799 18.9615C4.99957 18.1351 4.16626 16.2043 4.45695 14.7616C4.74412 13.3436 5.72366 12.0154 7.60522 10.7901L8.55392 10.1737L8.90804 11.2789C9.11681 11.932 9.47797 12.4566 9.84529 12.9895C10.0215 13.2463 10.2003 13.5059 10.3641 13.782C10.9305 14.7405 11.0803 15.8063 10.7147 16.8638C10.3817 17.8251 9.83208 18.5808 9.07629 19L9.93074 18.9009C12.0607 18.6542 13.6243 17.8957 14.6399 16.6272C15.6468 15.3697 16 13.7508 16 12.0274C16 10.4223 15.3666 8.76761 14.6197 7.39088C13.7441 5.77842 12.6016 4.43929 11.3542 3.14144C11.1384 3.59088 11.1552 3.77248 10.7112 4.49433C10.1349 2.90003 9.05272 1.55864 7.64397 0.692493Z" fill="#454444"/>
</svg>
