<svg width="26" height="30" viewBox="0 0 26 30" fill="none" xmlns="http://www.w3.org/2000/svg">
<path d="M12.4215 1.09341L10.6179 0L10.2743 2.09848C9.72751 5.41202 7.49018 8.49095 5.0224 10.6546C0.191326 14.8921 -0.8665 19.4975 0.629344 23.2991C2.06077 26.937 5.69374 29.4279 9.3811 29.8436L10.2342 29.9392C8.12431 28.6343 6.77018 25.5858 7.24255 23.3077C7.70919 21.0688 9.30094 18.9718 12.3585 17.0369L13.9001 16.0637L14.4756 17.8088C14.8148 18.84 15.4017 19.6684 15.9986 20.5098C16.2849 20.9153 16.5755 21.3251 16.8417 21.761C17.7621 23.2744 18.0055 24.9573 17.4114 26.6271C16.8703 28.1448 15.9771 29.3382 14.749 30L16.1374 29.8436C19.5986 29.454 22.1394 28.2563 23.7899 26.2534C25.426 24.2679 26 21.7118 26 18.9906C26 16.4562 24.9708 13.8436 23.757 11.6698C22.3341 9.12382 20.4775 7.00941 18.4506 4.96017C18.0999 5.6698 18.1271 5.95655 17.4057 7.09631C16.4692 4.57899 14.7107 2.46101 12.4215 1.09341Z" fill="#CC2222"/>
</svg>
