<svg width="13" height="15" viewBox="0 0 13 15" fill="none" xmlns="http://www.w3.org/2000/svg">
<path d="M6.21073 0.546705L5.30893 0L5.13716 1.04924C4.86375 2.70601 3.74509 4.24547 2.5112 5.3273C0.0956632 7.44605 -0.43325 9.74873 0.314672 11.6495C1.03039 13.4685 2.84687 14.714 4.69055 14.9218L5.11712 14.9696C4.06215 14.3172 3.38509 12.7929 3.62127 11.6539C3.8546 10.5344 4.65047 9.48588 6.17924 8.51846L6.95006 8.03186L7.23778 8.90442C7.4074 9.41998 7.70085 9.83418 7.9993 10.2549C8.14244 10.4576 8.28773 10.6626 8.42086 10.8805C8.88106 11.6372 9.00273 12.4786 8.70571 13.3135C8.43517 14.0724 7.98856 14.6691 7.37448 15L8.06872 14.9218C9.79932 14.727 11.0697 14.1282 11.8949 13.1267C12.713 12.134 13 10.8559 13 9.49529C13 8.2281 12.4854 6.9218 11.8785 5.8349C11.1671 4.56191 10.2388 3.50471 9.22532 2.48009C9.04997 2.8349 9.06357 2.97828 8.70285 3.54815C8.23462 2.2895 7.35533 1.23051 6.21073 0.546705Z" fill="#A7A4A4"/>
</svg>
