<svg width="954" height="139" viewBox="0 0 954 139" fill="none" xmlns="http://www.w3.org/2000/svg">
<g clip-path="url(#clip0_691_2166)">
<path d="M13.59 55.58C13.59 61.1 18.49 65.15 28.3 67.72C31.06 68.39 32.87 68.84 33.73 69.08C34.59 69.32 36.28 69.84 38.8 70.65C41.32 71.46 43.08 72.15 44.08 72.72C45.08 73.29 46.48 74.17 48.29 75.36C50.1 76.55 51.38 77.74 52.15 78.93C52.91 80.12 53.62 81.64 54.29 83.5C54.95 85.36 55.29 87.33 55.29 89.43C55.29 95.52 52.86 100.48 48.01 104.28C43.34 108.09 37.15 109.99 29.44 109.99C22.77 109.99 17.02 108.49 12.16 105.49C7.3 102.49 3.88 98.52 1.88 93.56L9.88 88.85C11.21 92.56 13.62 95.49 17.09 97.63C20.57 99.77 24.68 100.84 29.45 100.84C34.22 100.84 38.26 99.89 41.3 97.98C44.35 96.08 45.87 93.22 45.87 89.41C45.87 83.89 40.96 79.84 31.16 77.27C28.4 76.6 26.59 76.15 25.73 75.91C24.87 75.67 23.18 75.15 20.66 74.34C18.14 73.53 16.38 72.84 15.38 72.27C14.38 71.7 12.97 70.82 11.17 69.63C9.36 68.44 8.07 67.25 7.31 66.06C6.55 64.87 5.83 63.35 5.17 61.49C4.5 59.63 4.17 57.66 4.17 55.56C4.17 49.75 6.46 44.9 11.03 40.99C15.79 37.09 21.65 35.14 28.6 35.14C34.31 35.14 39.38 36.43 43.81 39C48.24 41.57 51.5 45.14 53.59 49.71L45.73 54.28C43.06 47.62 37.35 44.28 28.59 44.28C24.31 44.28 20.73 45.28 17.88 47.28C15.02 49.28 13.6 52.04 13.6 55.56L13.59 55.58Z" fill="#231F20" stroke="#231F20" stroke-width="3" stroke-miterlimit="10"/>
<path d="M110.73 37.87V47.01H97.42V90.28C97.42 94.19 98.18 96.97 99.7 98.64C101.22 100.31 103.51 101.16 106.56 101.21C109.61 101.26 105.83 101.19 110.41 101V109.28C100.22 110.8 95.35 107.07 95.35 107.07C90.45 104.07 87.99 98.48 87.99 90.29V47.01H72.99V37.87H87.99V17.88H97.42V37.88H110.73V37.87Z" fill="#231F20" stroke="#231F20" stroke-width="3" stroke-miterlimit="10"/>
<path d="M183.98 75.29V37.87H193.41V109.28H183.98V98.14C178.65 106.71 170.65 110.99 159.99 110.99C151.42 110.99 144.61 108.35 139.57 103.06C134.52 97.78 132 90.66 132 81.71V37.87H141.43V81.72C141.43 88.1 143.12 93.05 146.5 96.57C149.88 100.09 154.66 101.85 160.85 101.85C167.99 101.85 173.63 99.61 177.77 95.14C181.91 90.67 183.98 84.05 183.98 75.29Z" fill="#231F20" stroke="#231F20" stroke-width="3" stroke-miterlimit="10"/>
<path d="M278.81 51.87V1.5H288.24V109.28H278.81V95.28C272.24 105.76 262.62 110.99 249.96 110.99C239.77 110.99 231.06 107.37 223.82 100.14C216.68 92.9 213.11 84.05 213.11 73.58C213.11 63.11 216.68 54.25 223.82 47.02C231.06 39.79 239.77 36.17 249.96 36.17C262.62 36.17 272.24 41.41 278.81 51.88V51.87ZM230.68 93.72C236.11 99.15 242.77 101.86 250.68 101.86C258.59 101.86 265.25 99.15 270.68 93.72C276.11 88.1 278.82 81.39 278.82 73.58C278.82 65.77 276.11 59.01 270.68 53.58C265.25 48.06 258.59 45.3 250.68 45.3C242.77 45.3 236.11 48.06 230.68 53.58C225.25 59.01 222.54 65.67 222.54 73.58C222.54 81.49 225.25 88.1 230.68 93.72Z" fill="#231F20" stroke="#231F20" stroke-width="3" stroke-miterlimit="10"/>
<path d="M350.22 35.16C360.88 35.16 369.41 38.92 375.78 46.44C382.35 53.87 385.63 62.67 385.63 72.86C385.63 73.34 385.54 74.81 385.35 77.29H322.65C323.6 84.43 326.65 90.14 331.79 94.43C336.93 98.71 343.36 100.86 351.07 100.86C361.93 100.86 369.59 96.81 374.06 88.72L382.35 93.58C379.21 98.72 374.9 102.75 369.42 105.65C363.94 108.55 357.78 110.01 350.93 110.01C339.69 110.01 330.55 106.49 323.51 99.44C316.46 92.39 312.94 83.44 312.94 72.59C312.94 61.74 316.42 52.93 323.37 45.88C330.32 38.74 339.27 35.17 350.22 35.17V35.16ZM350.22 44.3C342.79 44.3 336.58 46.49 331.58 50.87C326.58 55.25 323.6 61.01 322.65 68.15H375.92C374.87 60.53 371.97 54.68 367.21 50.58C362.26 46.39 356.59 44.3 350.21 44.3H350.22Z" fill="#231F20" stroke="#231F20" stroke-width="3" stroke-miterlimit="10"/>
<path d="M445.06 35.16C453.63 35.16 460.44 37.8 465.48 43.09C470.53 48.37 473.05 55.49 473.05 64.44V108.29H463.62V64.44C463.62 58.06 461.93 53.11 458.55 49.59C455.17 46.07 450.38 44.31 444.2 44.31C437.06 44.31 431.42 46.55 427.28 51.02C423.14 55.5 421.07 62.11 421.07 70.87V108.29H411.64V36.87H421.07V48.01C426.4 39.44 434.4 35.16 445.06 35.16Z" fill="#231F20" stroke="#231F20" stroke-width="3" stroke-miterlimit="10"/>
<path d="M535.18 36.87V46.01H514.61V89.28C514.61 93.19 515.37 95.97 516.89 97.64C518.41 99.31 520.7 100.16 523.75 100.21C526.8 100.26 530.61 100.19 535.18 100V108.28C524.99 109.8 517.45 109.07 512.54 106.07C507.64 103.07 505.18 97.48 505.18 89.29V46.01H497.29V36.87H505.18V16.88H514.61V36.88H535.18V36.87Z" fill="#231F20" stroke="#231F20" stroke-width="3" stroke-miterlimit="10"/>
<path d="M563.03 55.58C563.03 61.1 567.93 65.15 577.74 67.72C580.5 68.39 582.31 68.84 583.17 69.08C584.03 69.32 585.72 69.84 588.24 70.65C590.76 71.46 592.52 72.15 593.52 72.72C594.52 73.29 595.92 74.17 597.73 75.36C599.54 76.55 600.82 77.74 601.58 78.93C602.34 80.12 603.06 81.64 603.72 83.5C604.38 85.36 604.72 87.33 604.72 89.43C604.72 95.52 602.29 100.48 597.44 104.28C592.77 108.09 586.59 109.99 578.87 109.99C572.2 109.99 566.44 108.49 561.59 105.49C556.73 102.49 553.3 98.52 551.31 93.56L559.31 88.85C560.64 92.56 563.04 95.49 566.52 97.63C570 99.77 574.11 100.84 578.88 100.84C583.65 100.84 587.68 99.89 590.73 97.98C593.78 96.08 595.3 93.22 595.3 89.41C595.3 83.89 590.4 79.84 580.59 77.27C577.83 76.6 576.02 76.15 575.16 75.91C574.3 75.67 572.61 75.15 570.09 74.34C567.57 73.53 565.81 72.84 564.81 72.27C563.81 71.7 562.41 70.82 560.6 69.63C558.79 68.44 557.51 67.25 556.75 66.06C555.99 64.87 555.27 63.35 554.61 61.49C553.94 59.63 553.61 57.66 553.61 55.56C553.61 49.75 555.89 44.9 560.47 40.99C565.23 37.09 571.09 35.14 578.04 35.14C583.75 35.14 588.82 36.43 593.25 39C597.68 41.57 600.94 45.14 603.03 49.71L595.17 54.28C592.5 47.62 586.79 44.28 578.03 44.28C573.75 44.28 570.17 45.28 567.32 47.28C564.46 49.28 563.04 52.04 563.04 55.56L563.03 55.58Z" fill="#231F20" stroke="#231F20" stroke-width="3" stroke-miterlimit="10"/>
<path d="M687.72 50.87V36.87H697.15V108.28H687.72V94.28C681.15 104.76 671.53 109.99 658.87 109.99C648.68 109.99 639.97 106.37 632.73 99.14C625.59 91.9 622.02 83.05 622.02 72.58C622.02 62.11 625.59 53.25 632.73 46.02C639.97 38.79 648.68 35.17 658.87 35.17C671.53 35.17 681.15 40.41 687.72 50.88V50.87ZM639.59 92.72C645.02 98.15 651.68 100.86 659.59 100.86C667.5 100.86 674.16 98.15 679.59 92.72C685.02 87.1 687.73 80.39 687.73 72.58C687.73 64.77 685.02 58.01 679.59 52.58C674.16 47.06 667.5 44.3 659.59 44.3C651.68 44.3 645.02 47.06 639.59 52.58C634.16 58.01 631.45 64.67 631.45 72.58C631.45 80.49 634.16 87.1 639.59 92.72Z" fill="#231F20" stroke="#231F20" stroke-width="3" stroke-miterlimit="10"/>
<path d="M755.41 96.71L778.55 36.87H788.55L757.99 114.85C755.13 122.09 751.16 127.68 746.06 131.63C740.97 135.58 735.32 137.32 729.14 136.84V127.99C737.71 129.04 744.23 124.08 748.71 113.14L750.57 108.71L718.58 36.87H728.58L755.43 96.71H755.41Z" fill="#231F20" stroke="#231F20" stroke-width="3" stroke-miterlimit="10"/>
<path d="M810.86 55.58C810.86 61.1 815.76 65.15 825.57 67.72C828.33 68.39 830.14 68.84 831 69.08C831.86 69.32 833.55 69.84 836.07 70.65C838.59 71.46 840.35 72.15 841.35 72.72C842.35 73.29 843.75 74.17 845.56 75.36C847.37 76.55 848.65 77.74 849.41 78.93C850.17 80.12 850.89 81.64 851.55 83.5C852.21 85.36 852.55 87.33 852.55 89.43C852.55 95.52 850.12 100.48 845.27 104.28C840.6 108.09 834.42 109.99 826.7 109.99C820.03 109.99 814.27 108.49 809.42 105.49C804.56 102.49 801.13 98.52 799.14 93.56L807.14 88.85C808.47 92.56 810.87 95.49 814.35 97.63C817.83 99.77 821.94 100.84 826.71 100.84C831.48 100.84 835.51 99.89 838.56 97.98C841.61 96.08 843.13 93.22 843.13 89.41C843.13 83.89 838.23 79.84 828.42 77.27C825.66 76.6 823.85 76.15 822.99 75.91C822.13 75.67 820.44 75.15 817.92 74.34C815.4 73.53 813.64 72.84 812.64 72.27C811.64 71.7 810.24 70.82 808.43 69.63C806.62 68.44 805.34 67.25 804.58 66.06C803.82 64.87 803.1 63.35 802.44 61.49C801.77 59.63 801.44 57.66 801.44 55.56C801.44 49.75 803.72 44.9 808.3 40.99C813.06 37.09 818.92 35.14 825.87 35.14C831.58 35.14 836.65 36.43 841.08 39C845.51 41.57 848.77 45.14 850.86 49.71L843 54.28C840.33 47.62 834.62 44.28 825.86 44.28C821.58 44.28 818 45.28 815.15 47.28C812.29 49.28 810.87 52.04 810.87 55.56L810.86 55.58Z" fill="#231F20" stroke="#231F20" stroke-width="3" stroke-miterlimit="10"/>
<path d="M903.45 107.55C883.09 96.19 882.89 83.58 885.5 75.85C886.61 72.55 888.48 69.55 890.91 67.04C908.67 48.69 912 36.74 912.59 32.13C912.71 31.15 913.84 30.67 914.64 31.24C923.19 37.38 927.44 48.23 928.97 53C929.31 54.06 930.74 54.23 931.31 53.28C932.71 50.93 933.8 47.58 934.42 45.38C934.7 44.4 935.95 44.11 936.63 44.87C948.81 58.48 952.65 71.02 953.26 80.57C954.03 92.59 946.56 103.61 935.16 107.52C933.74 108.01 932.43 108.39 931.28 108.69C930.04 109.01 929.14 107.53 929.99 106.57C937.22 98.42 932.37 90.82 932.37 90.82C924.64 80.84 923.31 72.28 923.15 68.45C923.11 67.48 922.05 66.91 921.21 67.39C897 81.11 901.61 98.36 905.23 105.87C905.78 107.01 904.54 108.18 903.44 107.57L903.45 107.55Z" fill="#ED2224"/>
</g>
<defs>
<clipPath id="clip0_691_2166">
<rect width="953.32" height="138.42" fill="white"/>
</clipPath>
</defs>
</svg>
