<svg width="255" height="37" viewBox="0 0 255 37" fill="none" xmlns="http://www.w3.org/2000/svg">
<g clip-path="url(#clip0_1281_2965)">
<path d="M3.63519 14.8567C3.63519 16.3322 4.94588 17.4148 7.56992 18.1017C8.30818 18.2808 8.79233 18.4011 9.02237 18.4653C9.25241 18.5294 9.70446 18.6684 10.3785 18.8849C11.0526 19.1014 11.5234 19.2859 11.7908 19.4382C12.0583 19.5906 12.4328 19.8258 12.917 20.1439C13.4011 20.462 13.7435 20.7801 13.9495 21.0982C14.1528 21.4163 14.3427 21.8226 14.5219 22.3198C14.6984 22.8169 14.7894 23.3435 14.7894 23.9049C14.7894 25.5327 14.1394 26.8585 12.8421 27.8743C11.5929 28.8927 9.93717 29.4006 7.87485 29.4006C6.09072 29.4006 4.55267 28.9996 3.25269 28.1977C1.95271 27.3958 1.0379 26.3346 0.50293 25.0088L2.64282 23.7498C2.99858 24.7415 3.64322 25.5247 4.5714 26.0967C5.50225 26.6688 6.60162 26.9548 7.87753 26.9548C9.15344 26.9548 10.2341 26.7008 11.0472 26.1903C11.8631 25.6824 12.2696 24.9179 12.2696 23.8995C12.2696 22.424 10.9563 21.3414 8.33493 20.6545C7.59666 20.4754 7.11251 20.3551 6.88248 20.2909C6.65244 20.2268 6.20039 20.0878 5.52632 19.8713C4.85226 19.6547 4.38148 19.4703 4.11399 19.3179C3.84651 19.1656 3.46935 18.9304 2.98788 18.6123C2.50373 18.2942 2.15867 17.9761 1.95538 17.658C1.75209 17.3399 1.5595 16.9336 1.38296 16.4364C1.20374 15.9392 1.11547 15.4127 1.11547 14.8513C1.11547 13.2983 1.72802 12.0019 2.95043 10.9567C4.22366 9.91425 5.79113 9.39301 7.65016 9.39301C9.17751 9.39301 10.5337 9.73783 11.7186 10.4248C12.9036 11.1118 13.7756 12.066 14.3346 13.2876L12.2322 14.5092C11.518 12.7289 9.99067 11.8361 7.64749 11.8361C6.50265 11.8361 5.54504 12.1035 4.78271 12.6381C4.0177 13.1727 3.63787 13.9104 3.63787 14.8513L3.63519 14.8567Z" fill="white"/>
<path d="M7.87479 29.8042C6.02379 29.8042 4.40015 29.3792 3.04132 28.5426C1.67446 27.6979 0.695464 26.5618 0.128393 25.1639L0 24.8431L2.85408 23.1618L3.01724 23.6188C3.34625 24.533 3.92135 25.2334 4.77998 25.7599C5.64128 26.2892 6.68181 26.5592 7.87479 26.5592C9.06778 26.5592 10.0869 26.3239 10.8332 25.8562C11.5287 25.4205 11.8684 24.7843 11.8684 23.9049C11.8684 22.6405 10.646 21.6809 8.23323 21.0474C7.51101 20.8737 7.01616 20.7507 6.77543 20.6839C6.53736 20.617 6.07461 20.4754 5.4059 20.2589C4.69973 20.0343 4.21291 19.8419 3.916 19.6708C3.63781 19.5104 3.24996 19.2698 2.76848 18.9517C2.23084 18.5989 1.85635 18.2487 1.61829 17.8772C1.39895 17.535 1.19299 17.0967 1.00575 16.5754C0.813158 16.0382 0.714188 15.4608 0.714188 14.8567C0.714188 13.1887 1.37755 11.7774 2.68824 10.6574C4.03637 9.55339 5.70281 8.99741 7.64743 8.99741C9.23897 8.99741 10.6754 9.36361 11.9165 10.0827C13.1683 10.8097 14.1019 11.8335 14.6957 13.1246L14.8482 13.456L12.0315 15.0946L11.8577 14.6642C11.205 13.0363 9.82745 12.2451 7.64476 12.2451C6.58819 12.2451 5.70013 12.491 5.01002 12.9749C4.35468 13.4346 4.03637 14.0521 4.03637 14.862C4.03637 16.1264 5.25878 17.0886 7.67151 17.7195C8.39639 17.8932 8.88857 18.0189 9.12931 18.083C9.36202 18.1472 9.80872 18.2862 10.5015 18.508C11.2103 18.7352 11.6998 18.9277 11.9914 19.0961C12.2669 19.2538 12.6521 19.4944 13.1389 19.8151C13.6766 20.168 14.0511 20.5208 14.2891 20.887C14.5085 21.2318 14.7144 21.6702 14.9017 22.1888C15.0942 22.7287 15.1932 23.3061 15.1932 23.9102C15.1932 25.661 14.4871 27.1045 13.0908 28.1951C11.7801 29.2643 10.0254 29.8069 7.87747 29.8069L7.87479 29.8042ZM1.0111 25.1772C1.52735 26.2705 2.3512 27.1713 3.46395 27.8583C4.69171 28.6174 6.17626 28.9996 7.87479 28.9996C9.83279 28.9996 11.419 28.5158 12.5879 27.5616C13.8023 26.61 14.3881 25.4151 14.3881 23.9022C14.3881 23.3916 14.3052 22.9051 14.1447 22.4534C13.9788 21.991 13.7969 21.6061 13.6097 21.312C13.4385 21.0447 13.1309 20.7641 12.6949 20.478C12.2214 20.168 11.8496 19.9327 11.5902 19.7857C11.3494 19.6494 10.9001 19.473 10.2527 19.2645C9.57066 19.048 9.13198 18.9117 8.91264 18.8502C8.68528 18.7887 8.18775 18.6631 7.47357 18.492C4.65694 17.7542 3.23123 16.5327 3.23123 14.8567C3.23123 13.7821 3.67526 12.9268 4.54727 12.3146C5.37647 11.7346 6.417 11.4405 7.64208 11.4405C9.96386 11.4405 11.5661 12.2826 12.4087 13.9452L13.8023 13.1352C13.278 12.1489 12.5077 11.355 11.5099 10.7776C10.3918 10.1308 9.09186 9.80199 7.64208 9.80199C5.88737 9.80199 4.39212 10.2992 3.19646 11.2775C2.06232 12.2451 1.50862 13.4186 1.50862 14.862C1.50862 15.3726 1.59154 15.8617 1.75203 16.3108C1.91788 16.7759 2.09709 17.1608 2.28433 17.4522C2.45552 17.7222 2.76313 18.0028 3.19914 18.2888C3.66724 18.5989 4.03904 18.8315 4.30385 18.9812C4.47237 19.0774 4.83883 19.2458 5.64128 19.4997C6.29128 19.7082 6.7567 19.8526 6.98139 19.914C7.21143 19.9782 7.70895 20.1038 8.42047 20.2749C11.2371 21.0126 12.6628 22.2342 12.6628 23.9102C12.6628 25.0703 12.1867 25.9551 11.2505 26.5405C10.3758 27.0884 9.2363 27.3638 7.86677 27.3638C6.49724 27.3638 5.3417 27.0537 4.352 26.4442C3.4907 25.9123 2.84873 25.204 2.43947 24.3352L1.00307 25.1799L1.0111 25.1772Z" fill="white"/>
<path d="M29.6186 10.1227V12.5659H26.0584V24.1321C26.0584 25.1772 26.2617 25.9203 26.6682 26.3667C27.0748 26.8131 27.6874 27.0403 28.5032 27.0537C29.319 27.067 28.3079 27.0483 29.533 26.9975V29.2108C26.8073 29.6171 25.5047 28.6201 25.5047 28.6201C24.194 27.8182 23.536 26.3239 23.536 24.1347V12.5659H19.5237V10.1227H23.536V4.77936H26.0584V10.1254H29.6186V10.1227Z" fill="white"/>
<path d="M28.2733 29.7107C26.4223 29.7107 25.4406 29.0665 25.2828 28.9542C23.8597 28.0775 23.1375 26.4549 23.1375 24.1347V12.9668H19.1252V9.72179H23.1375V4.37842H26.4624V9.72447H30.0226V12.9695H26.4624V24.1374C26.4624 25.073 26.6336 25.7332 26.9679 26.0994C27.2996 26.4629 27.8052 26.6447 28.5113 26.6554C28.6371 26.6554 28.7146 26.6581 28.7654 26.6581C28.8992 26.6233 29.1159 26.6126 29.5171 26.5966L29.9344 26.5779V29.5556L29.592 29.6064C29.1105 29.6786 28.6718 29.708 28.2706 29.708L28.2733 29.7107ZM19.9277 12.1676H23.94V24.1374C23.94 26.1956 24.5204 27.5509 25.7161 28.2806L25.7509 28.3047C25.7509 28.3047 26.8663 29.1119 29.1319 28.8633V27.4226C29.0864 27.4252 29.0517 27.4279 29.0276 27.4306C28.9286 27.4653 28.7842 27.4627 28.498 27.46C27.5725 27.4466 26.8583 27.1713 26.3741 26.642C25.8926 26.1155 25.6573 25.2975 25.6573 24.1374V12.1649H29.2175V10.5237H25.6573V5.18033H23.9373V10.5264H19.925V12.1676H19.9277Z" fill="white"/>
<path d="M49.212 20.1252V10.1227H51.7344V29.2108H49.212V26.2331C47.7863 28.5238 45.6465 29.6679 42.795 29.6679C40.5027 29.6679 38.6811 28.9622 37.333 27.5482C35.9822 26.1368 35.3081 24.2336 35.3081 21.8413V10.1227H37.8305V21.844C37.8305 23.5493 38.2826 24.8725 39.1867 25.8134C40.0908 26.7543 41.3693 27.2247 43.0251 27.2247C44.9349 27.2247 46.4436 26.626 47.551 25.4311C48.6583 24.2363 49.212 22.4668 49.212 20.1252Z" fill="white"/>
<path d="M42.7925 30.0715C40.3958 30.0715 38.4619 29.3177 37.0388 27.8289C35.6212 26.3453 34.9016 24.3326 34.9016 21.844V9.7218H38.2265V21.844C38.2265 23.4344 38.6437 24.6774 39.4703 25.5354C40.2915 26.3908 41.4844 26.8238 43.0198 26.8238C44.8307 26.8238 46.2163 26.2785 47.2515 25.1585C48.2839 24.0439 48.8055 22.3492 48.8055 20.1252V9.7218H52.1304V29.6118H48.8055V27.4653C47.337 29.1948 45.3175 30.0689 42.7898 30.0689L42.7925 30.0715ZM35.7067 10.5264V21.8466C35.7067 24.1214 36.3514 25.9497 37.6219 27.2782C38.8872 28.6014 40.6258 29.2723 42.7951 29.2723C45.5235 29.2723 47.5109 28.2111 48.8724 26.0246L49.6134 24.8324V28.8125H51.3333V10.5237H49.6134V20.1252C49.6134 22.5603 49.0195 24.4368 47.8453 25.7038C46.663 26.9788 45.042 27.6257 43.0225 27.6257C41.2598 27.6257 39.8715 27.1098 38.8925 26.0887C37.9189 25.0757 37.424 23.6456 37.424 21.8413V10.5237H35.7041L35.7067 10.5264Z" fill="white"/>
<path d="M74.5778 13.865V0.40094H77.1001V29.2108H74.5778V25.4686C72.8204 28.2699 70.2472 29.6679 66.8608 29.6679C64.1351 29.6679 61.8053 28.7002 59.8687 26.7677C57.9588 24.8324 57.0039 22.4668 57.0039 19.6681C57.0039 16.8694 57.9588 14.5011 59.8687 12.5685C61.8053 10.636 64.1351 9.66831 66.8608 9.66831C70.2472 9.66831 72.8204 11.069 74.5778 13.8676V13.865ZM61.7036 25.0516C63.1561 26.503 64.9375 27.2274 67.0534 27.2274C69.1692 27.2274 70.9506 26.503 72.4031 25.0516C73.8555 23.5493 74.5804 21.7557 74.5804 19.6681C74.5804 17.5805 73.8555 15.7735 72.4031 14.3221C70.9506 12.8465 69.1692 12.1088 67.0534 12.1088C64.9375 12.1088 63.1561 12.8465 61.7036 14.3221C60.2512 15.7735 59.5263 17.5537 59.5263 19.6681C59.5263 21.7825 60.2512 23.5493 61.7036 25.0516Z" fill="white"/>
<path d="M66.8609 30.0715C64.0362 30.0715 61.5887 29.0558 59.5853 27.0537C57.6059 25.0489 56.6028 22.5657 56.6028 19.6708C56.6028 16.7759 57.6059 14.2927 59.5826 12.2879C61.5887 10.2831 64.0362 9.26737 66.8609 9.26737C69.9316 9.26737 72.3871 10.3927 74.1766 12.6113V0H77.5015V29.6118H74.1766V26.7249C72.3871 28.9462 69.9316 30.0688 66.8609 30.0688V30.0715ZM66.8609 10.0666C64.2582 10.0666 62.0007 11.0022 60.1523 12.8492C58.3307 14.6963 57.4052 16.9897 57.4052 19.6654C57.4052 22.3411 58.3307 24.6373 60.155 26.4843C62.0007 28.3287 64.2582 29.2669 66.8609 29.2669C70.1296 29.2669 72.545 27.9545 74.2382 25.2547L74.9791 24.0733V28.8072H76.699V0.801907H74.9791V15.2576L74.2382 14.0761C72.5423 11.3764 70.1296 10.0639 66.8609 10.0639V10.0666ZM67.0508 27.6284C64.836 27.6284 62.9422 26.8559 61.4175 25.3349L61.4122 25.3296C59.8929 23.7578 59.1225 21.852 59.1225 19.6681C59.1225 17.4843 59.8955 15.5623 61.4175 14.0387C62.9395 12.491 64.8333 11.7078 67.0508 11.7078C69.2683 11.7078 71.1621 12.4937 72.6867 14.0414C74.2061 15.5597 74.9791 17.4548 74.9791 19.6681C74.9791 21.8814 74.2087 23.7578 72.6894 25.3296C71.1621 26.8559 69.2683 27.6284 67.0535 27.6284H67.0508ZM61.99 24.7709C63.3568 26.1342 65.0607 26.8265 67.0508 26.8265C69.0409 26.8265 70.7501 26.1342 72.1143 24.7682C73.4785 23.3569 74.174 21.6381 74.174 19.6681C74.174 17.6981 73.4812 15.974 72.1143 14.6081C70.7448 13.2154 69.0409 12.5124 67.0508 12.5124C65.0607 12.5124 63.3568 13.2181 61.9873 14.6054C60.6178 15.974 59.925 17.6767 59.925 19.6681C59.925 21.6595 60.6178 23.3542 61.9873 24.7709H61.99Z" fill="white"/>
<path d="M93.6789 9.39835C96.5303 9.39835 98.812 10.4034 100.516 12.4135C102.273 14.3996 103.151 16.7518 103.151 19.4756C103.151 19.604 103.127 19.9969 103.076 20.6598H86.3043C86.5584 22.5683 87.3743 24.0946 88.7491 25.2414C90.124 26.3854 91.844 26.9601 93.9063 26.9601C96.8112 26.9601 98.8601 25.8775 100.056 23.7151L102.273 25.0142C101.433 26.3881 100.28 27.4653 98.8147 28.2405C97.3488 29.0157 95.7011 29.4059 93.8688 29.4059C90.8623 29.4059 88.4175 28.465 86.5344 26.5805C84.6486 24.6961 83.707 22.3037 83.707 19.4035C83.707 16.5032 84.6379 14.1483 86.4969 12.2638C88.3559 10.3553 90.7499 9.40102 93.6789 9.40102V9.39835ZM93.6789 11.8415C91.6915 11.8415 90.0304 12.4269 88.693 13.5977C87.3555 14.7685 86.5584 16.3081 86.3043 18.2167H100.553C100.272 16.1798 99.4967 14.6161 98.2235 13.5201C96.8995 12.4002 95.3828 11.8415 93.6762 11.8415H93.6789Z" fill="white"/>
<path d="M93.8716 29.8042C90.7688 29.8042 88.2063 28.8152 86.2536 26.8612C84.301 24.9099 83.3086 22.4 83.3086 19.4008C83.3086 16.4017 84.2849 13.9318 86.2135 11.9805C88.1394 10.0025 90.6538 8.99741 93.6817 8.99741C96.7097 8.99741 99.0475 10.0586 100.826 12.1542C102.637 14.1991 103.557 16.6636 103.557 19.4757C103.557 19.5639 103.549 19.7831 103.48 20.6892L103.45 21.0608H86.7779C87.0802 22.6485 87.8291 23.9503 89.0087 24.934C90.3034 26.0112 91.9511 26.5592 93.9091 26.5592C96.6802 26.5592 98.5767 25.5648 99.7082 23.5199L99.9061 23.1591L102.83 24.8725L102.616 25.22C101.741 26.6501 100.527 27.7834 99.0047 28.5907C97.488 29.3953 95.7601 29.8016 93.8689 29.8016L93.8716 29.8042ZM93.6817 9.79931C90.8785 9.79931 88.5593 10.7215 86.7859 12.5418C85.0098 14.3408 84.1111 16.6476 84.1111 19.4008C84.1111 22.154 85.0232 24.4983 86.8207 26.2945C88.6182 28.0908 90.9908 29.0023 93.8716 29.0023C95.629 29.0023 97.2313 28.6254 98.6302 27.885C99.8981 27.2141 100.933 26.2919 101.712 25.1478L100.203 24.263C98.9111 26.3186 96.7952 27.3611 93.9091 27.3611C91.7585 27.3611 89.9369 26.7516 88.4951 25.5514C87.0454 24.3432 86.176 22.718 85.9086 20.7159L85.847 20.2615H102.704C102.741 19.7376 102.752 19.5452 102.752 19.4783C102.752 16.8695 101.899 14.5814 100.216 12.6808C98.5928 10.7669 96.394 9.79931 93.679 9.79931H93.6817ZM101.019 18.6176H85.8497L85.9112 18.1632C86.1787 16.1638 87.0267 14.5279 88.431 13.2956C89.8379 12.0634 91.6033 11.4406 93.6817 11.4406C95.4765 11.4406 97.0948 12.0366 98.4858 13.2154C99.8312 14.3729 100.66 16.0355 100.955 18.1632L101.016 18.6203L101.019 18.6176ZM86.7779 17.8157H100.085C99.7724 16.1077 99.0582 14.7658 97.9642 13.8249C96.723 12.7744 95.2813 12.2425 93.679 12.2425C91.8013 12.2425 90.2124 12.7984 88.9579 13.8997C87.8104 14.9048 87.0775 16.2226 86.7752 17.8157H86.7779Z" fill="white"/>
<path d="M119.047 9.39835C121.34 9.39835 123.161 10.104 124.509 11.5181C125.86 12.9294 126.534 14.8326 126.534 17.225V28.9462H124.012V17.225C124.012 15.5196 123.56 14.1964 122.656 13.2555C121.752 12.3146 120.47 11.8442 118.817 11.8442C116.907 11.8442 115.399 12.4429 114.291 13.6378C113.184 14.8353 112.63 16.6021 112.63 18.9437V28.9462H110.108V9.85543H112.63V12.8332C114.056 10.5424 116.196 9.39835 119.047 9.39835Z" fill="white"/>
<path d="M126.936 29.3445H123.611V17.2223C123.611 15.6319 123.191 14.3916 122.367 13.5282C121.546 12.6728 120.35 12.2398 118.817 12.2398C117.006 12.2398 115.624 12.7851 114.586 13.9051C113.553 15.0197 113.032 16.7144 113.032 18.9384V29.3418H109.707V9.45449H113.032V11.6009C114.5 9.87149 116.52 8.99741 119.047 8.99741C121.441 8.99741 123.378 9.7512 124.801 11.2401C126.219 12.7236 126.938 14.7364 126.938 17.225V29.3471L126.936 29.3445ZM124.413 28.5426H126.133V17.2223C126.133 14.9476 125.488 13.1219 124.218 11.7907C122.953 10.4676 121.211 9.79664 119.045 9.79664C116.316 9.79664 114.329 10.8578 112.967 13.0444L112.227 14.2365V10.2564H110.507V28.5426H112.227V18.9411C112.227 16.5059 112.82 14.6295 113.995 13.3625C115.177 12.0874 116.798 11.4405 118.817 11.4405C120.577 11.4405 121.966 11.9564 122.945 12.9775C123.918 13.9933 124.413 15.4234 124.413 17.225V28.5452V28.5426Z" fill="white"/>
<path d="M143.153 9.85543V12.2986H137.651V23.8647C137.651 24.9099 137.854 25.653 138.261 26.0994C138.667 26.5458 139.28 26.773 140.096 26.7864C140.912 26.7997 141.931 26.781 143.153 26.7302V28.9435C140.427 29.3498 138.411 29.1547 137.097 28.3528C135.787 27.5509 135.129 26.0566 135.129 23.8674V12.2986H133.018V9.85543H135.129V4.51205H137.651V9.8581H143.153V9.85543Z" fill="white"/>
<path d="M140.623 29.553C139.061 29.553 137.828 29.2669 136.889 28.6949C135.455 27.8208 134.73 26.1956 134.73 23.8674V12.6995H132.62V9.45449H134.73V4.11111H138.055V9.45716H143.557V12.7022H138.055V23.8701C138.055 24.8057 138.226 25.4659 138.561 25.8321C138.892 26.1956 139.398 26.3774 140.104 26.3881C140.906 26.4015 141.928 26.3828 143.137 26.332L143.554 26.3133V29.291L143.212 29.3418C142.265 29.4835 141.401 29.553 140.623 29.553ZM133.422 11.8976H135.533V23.8674C135.533 25.9257 136.113 27.2809 137.309 28.0106C138.478 28.7243 140.307 28.9221 142.752 28.596V27.1472C141.709 27.1847 140.815 27.2007 140.091 27.1873C139.165 27.174 138.448 26.8986 137.967 26.3694C137.485 25.8428 137.25 25.0249 137.25 23.8648V11.8976H142.752V10.2564H137.25V4.91302H135.53V10.2591H133.419V11.9003L133.422 11.8976Z" fill="white"/>
<path d="M150.603 14.8567C150.603 16.3322 151.914 17.4148 154.538 18.1017C155.276 18.2808 155.76 18.4011 155.99 18.4653C156.22 18.5294 156.672 18.6684 157.346 18.8849C158.02 19.1014 158.491 19.2859 158.759 19.4382C159.026 19.5906 159.401 19.8258 159.885 20.1439C160.369 20.462 160.711 20.7801 160.915 21.0982C161.118 21.4163 161.31 21.8226 161.487 22.3198C161.666 22.8169 161.754 23.3435 161.754 23.9049C161.754 25.5327 161.104 26.8585 159.807 27.8743C158.558 28.8927 156.905 29.4006 154.84 29.4006C153.056 29.4006 151.515 28.9996 150.218 28.1977C148.918 27.3958 148 26.3346 147.468 25.0088L149.608 23.7498C149.964 24.7415 150.606 25.5247 151.536 26.0967C152.467 26.6688 153.567 26.9548 154.843 26.9548C156.119 26.9548 157.196 26.7008 158.012 26.1903C158.828 25.6824 159.235 24.9179 159.235 23.8995C159.235 22.424 157.924 21.3414 155.3 20.6545C154.562 20.4754 154.078 20.3551 153.848 20.2909C153.618 20.2268 153.165 20.0878 152.491 19.8713C151.817 19.6547 151.347 19.4703 151.079 19.3179C150.812 19.1656 150.437 18.9304 149.953 18.6123C149.469 18.2942 149.126 17.9761 148.923 17.658C148.72 17.3399 148.527 16.9336 148.351 16.4364C148.172 15.9392 148.083 15.4127 148.083 14.8513C148.083 13.2983 148.693 12.0019 149.918 10.9567C151.191 9.91425 152.759 9.39301 154.618 9.39301C156.145 9.39301 157.501 9.73783 158.686 10.4248C159.871 11.1118 160.743 12.066 161.302 13.2876L159.2 14.5092C158.486 12.7289 156.958 11.8361 154.615 11.8361C153.47 11.8361 152.513 12.1035 151.75 12.6381C150.985 13.1727 150.606 13.9104 150.606 14.8513L150.603 14.8567Z" fill="white"/>
<path d="M154.843 29.8042C152.992 29.8042 151.365 29.3792 150.009 28.5426C148.642 27.6979 147.661 26.5618 147.096 25.1639L146.968 24.8431L149.822 23.1618L149.985 23.6188C150.314 24.533 150.889 25.2334 151.748 25.7599C152.609 26.2892 153.65 26.5592 154.843 26.5592C156.036 26.5592 157.055 26.3239 157.801 25.8562C158.496 25.4231 158.833 24.7843 158.833 23.9049C158.833 22.6405 157.611 21.6782 155.198 21.0474C154.473 20.8737 153.979 20.7507 153.741 20.6839C153.508 20.6197 153.045 20.478 152.368 20.2589C151.665 20.0343 151.178 19.8419 150.878 19.6708C150.6 19.5131 150.215 19.2698 149.731 18.9517C149.196 18.5989 148.819 18.2487 148.583 17.8772C148.364 17.535 148.158 17.0967 147.971 16.5754C147.778 16.0408 147.679 15.4608 147.679 14.8567C147.679 13.1887 148.343 11.7774 149.653 10.6574C151.001 9.55339 152.668 8.99741 154.613 8.99741C156.207 8.99741 157.643 9.36361 158.882 10.0827C160.133 10.8097 161.07 11.8335 161.661 13.1246L161.813 13.456L158.997 15.0946L158.823 14.6642C158.17 13.0363 156.793 12.2451 154.61 12.2451C153.553 12.2451 152.668 12.491 151.975 12.9749C151.32 13.4346 150.999 14.0521 150.999 14.862C150.999 16.1264 152.221 17.0886 154.634 17.7195C155.359 17.8932 155.851 18.0162 156.092 18.083C156.324 18.1472 156.76 18.2835 157.464 18.508C158.175 18.7352 158.662 18.9277 158.954 19.0961C159.224 19.2511 159.601 19.4864 160.101 19.8151C160.639 20.168 161.013 20.5208 161.249 20.8897C161.468 21.2345 161.674 21.6702 161.861 22.1915C162.054 22.7287 162.153 23.3088 162.153 23.9102C162.153 25.661 161.447 27.1045 160.051 28.1951C158.743 29.2643 156.985 29.8069 154.837 29.8069L154.843 29.8042ZM147.979 25.1772C148.492 26.2705 149.316 27.1713 150.432 27.8583C151.659 28.6174 153.144 28.9996 154.843 28.9996C156.801 28.9996 158.387 28.5158 159.556 27.5616C160.77 26.61 161.356 25.4151 161.356 23.9022C161.356 23.3916 161.273 22.9025 161.112 22.4534C160.947 21.9883 160.767 21.6061 160.58 21.312C160.409 21.0447 160.101 20.7614 159.665 20.4754C159.179 20.1573 158.817 19.9301 158.561 19.7831C158.32 19.6467 157.871 19.4703 157.223 19.2618C156.538 19.0426 156.1 18.9063 155.883 18.8475C155.656 18.786 155.158 18.6604 154.444 18.4893C151.627 17.7516 150.202 16.53 150.202 14.854C150.202 13.7794 150.646 12.9241 151.518 12.312C152.347 11.7319 153.387 11.4379 154.613 11.4379C156.937 11.4379 158.537 12.2799 159.379 13.9425L160.773 13.1326C160.248 12.1462 159.478 11.3523 158.48 10.775C157.365 10.1281 156.062 9.79931 154.613 9.79931C152.858 9.79931 151.363 10.2965 150.17 11.2748C149.035 12.2425 148.482 13.4159 148.482 14.8593C148.482 15.3726 148.565 15.8591 148.725 16.3081C148.891 16.7732 149.07 17.1581 149.257 17.4495C149.429 17.7195 149.736 18.0002 150.172 18.2862C150.643 18.5962 151.015 18.8288 151.277 18.9785C151.445 19.0747 151.815 19.2431 152.614 19.497C153.28 19.7109 153.73 19.8499 153.955 19.9114C154.182 19.9755 154.679 20.0985 155.394 20.2722C158.21 21.01 159.636 22.2315 159.636 23.9075C159.636 25.0676 159.162 25.9551 158.226 26.5378C157.352 27.0858 156.212 27.3611 154.843 27.3611C153.473 27.3611 152.317 27.051 151.328 26.4416C150.466 25.9096 149.825 25.2013 149.415 24.3325L147.979 25.1772Z" fill="white"/>
<path d="M183.955 13.5976V9.85542H186.478V28.9435H183.955V25.2012C182.198 28.0026 179.625 29.4006 176.238 29.4006C173.513 29.4006 171.183 28.4329 169.246 26.5003C167.337 24.5651 166.382 22.1994 166.382 19.4008C166.382 16.6021 167.337 14.2338 169.246 12.3012C171.183 10.3686 173.513 9.401 176.238 9.401C179.625 9.401 182.198 10.8017 183.955 13.6003V13.5976ZM171.081 24.7843C172.534 26.2357 174.315 26.9601 176.431 26.9601C178.547 26.9601 180.328 26.2357 181.781 24.7843C183.233 23.282 183.958 21.4884 183.958 19.4008C183.958 17.3132 183.233 15.5062 181.781 14.0547C180.328 12.5792 178.547 11.8415 176.431 11.8415C174.315 11.8415 172.534 12.5792 171.081 14.0547C169.629 15.5062 168.904 17.2864 168.904 19.4008C168.904 21.5151 169.629 23.282 171.081 24.7843Z" fill="white"/>
<path d="M176.239 29.8042C173.417 29.8042 170.969 28.7885 168.963 26.7864C166.984 24.7816 165.98 22.2984 165.98 19.4035C165.98 16.5086 166.984 14.0227 168.963 12.0206C170.969 10.0158 173.417 9.00006 176.239 9.00006C179.309 9.00006 181.765 10.1227 183.554 12.344V9.45715H186.879V29.3444H183.554V26.4576C181.765 28.6789 179.309 29.8015 176.239 29.8015V29.8042ZM176.239 9.7993C173.636 9.7993 171.381 10.7349 169.53 12.5819C167.708 14.429 166.783 16.7224 166.783 19.3981C166.783 22.0738 167.708 24.37 169.533 26.217C171.378 28.0614 173.636 28.9996 176.239 28.9996C179.51 28.9996 181.923 27.6872 183.616 24.9874L184.357 23.8059V28.5399H186.077V10.2564H184.357V14.9903L183.616 13.8088C181.923 11.1091 179.51 9.79662 176.239 9.79662V9.7993ZM176.428 27.3611C174.214 27.3611 172.32 26.5886 170.795 25.0676L170.79 25.0623C169.271 23.4905 168.5 21.5847 168.5 19.4008C168.5 17.2169 169.273 15.295 170.795 13.7714C172.315 12.2237 174.211 11.4405 176.428 11.4405C178.646 11.4405 180.54 12.2264 182.062 13.7741C183.581 15.2924 184.354 17.1875 184.354 19.4008C184.354 21.6141 183.584 23.4905 182.064 25.0623C180.537 26.5886 178.641 27.3611 176.428 27.3611ZM171.365 24.5036C172.732 25.8668 174.433 26.5592 176.428 26.5592C178.424 26.5592 180.125 25.8668 181.492 24.5009C182.856 23.0896 183.552 21.3708 183.552 19.4008C183.552 17.4308 182.859 15.7067 181.492 14.3408C180.122 12.9481 178.419 12.2451 176.428 12.2451C174.438 12.2451 172.732 12.9508 171.368 14.3381C169.998 15.7067 169.305 17.4094 169.305 19.4008C169.305 21.3922 169.998 23.0869 171.368 24.5036H171.365Z" fill="white"/>
<path d="M202.062 25.8508L208.251 9.85544H210.926L202.752 30.6997C201.987 32.6349 200.925 34.1292 199.561 35.185C198.199 36.2409 196.688 36.706 195.035 36.5777V34.212C197.327 34.4927 199.071 33.1669 200.27 30.2426L200.767 29.0584L192.21 9.85544H194.885L202.067 25.8508H202.062Z" fill="white"/>
<path d="M195.556 37C195.372 37 195.187 36.992 195.003 36.9786L194.634 36.9492V33.7576L195.083 33.8138C197.191 34.0704 198.766 32.8542 199.898 30.0902L200.328 29.0638L191.59 9.4545H195.142L202.038 24.811L207.978 9.4545H211.515L203.124 30.8467C202.337 32.8408 201.219 34.4072 199.807 35.5031C198.523 36.4975 197.094 37 195.556 37ZM195.433 36.1981C196.84 36.2195 198.14 35.7784 199.315 34.8696C200.612 33.8619 201.644 32.4104 202.377 30.5527L210.338 10.2564H208.527L202.091 26.8933L194.623 10.2564H192.825L201.203 29.0531L200.639 30.3976C199.448 33.3059 197.696 34.7386 195.436 34.6478V36.1981H195.433Z" fill="white"/>
<path d="M216.894 14.8567C216.894 16.3322 218.204 17.4148 220.828 18.1017C221.567 18.2808 222.051 18.4011 222.281 18.4653C222.511 18.5294 222.963 18.6684 223.637 18.8849C224.311 19.1014 224.782 19.2859 225.049 19.4382C225.317 19.5906 225.691 19.8258 226.175 20.1439C226.66 20.462 227.002 20.7801 227.205 21.0982C227.409 21.4163 227.601 21.8226 227.778 22.3198C227.957 22.8169 228.045 23.3435 228.045 23.9049C228.045 25.5327 227.395 26.8585 226.098 27.8743C224.849 28.8927 223.196 29.4006 221.131 29.4006C219.347 29.4006 217.806 28.9996 216.509 28.1977C215.209 27.3958 214.291 26.3346 213.759 25.0088L215.899 23.7498C216.254 24.7415 216.896 25.5247 217.827 26.0967C218.758 26.6688 219.857 26.9548 221.133 26.9548C222.409 26.9548 223.487 26.7008 224.303 26.1903C225.119 25.6824 225.526 24.9179 225.526 23.8995C225.526 22.424 224.215 21.3414 221.591 20.6545C220.853 20.4754 220.368 20.3551 220.138 20.2909C219.908 20.2268 219.456 20.0878 218.782 19.8713C218.108 19.6547 217.637 19.4703 217.37 19.3179C217.102 19.1656 216.728 18.9304 216.244 18.6123C215.76 18.2942 215.417 17.9761 215.214 17.658C215.011 17.3399 214.818 16.9336 214.641 16.4364C214.462 15.9392 214.374 15.4127 214.374 14.8513C214.374 13.2983 214.984 12.0019 216.209 10.9567C217.482 9.91425 219.05 9.39301 220.909 9.39301C222.436 9.39301 223.792 9.73783 224.977 10.4248C226.162 11.1118 227.034 12.066 227.593 13.2876L225.491 14.5092C224.777 12.7289 223.249 11.8361 220.906 11.8361C219.761 11.8361 218.804 12.1035 218.041 12.6381C217.276 13.1727 216.896 13.9104 216.896 14.8513L216.894 14.8567Z" fill="white"/>
<path d="M221.136 29.8042C219.285 29.8042 217.659 29.3792 216.303 28.5426C214.936 27.6979 213.954 26.5618 213.39 25.1639L213.261 24.8431L216.115 23.1618L216.278 23.6188C216.607 24.533 217.183 25.2334 218.041 25.7599C218.903 26.2892 219.943 26.5592 221.136 26.5592C222.329 26.5592 223.348 26.3239 224.094 25.8562C224.79 25.4231 225.127 24.7843 225.127 23.9049C225.127 22.6405 223.904 21.6782 221.492 21.0474C220.767 20.8737 220.272 20.7507 220.034 20.6839C219.801 20.6197 219.339 20.478 218.662 20.2589C217.958 20.0343 217.471 19.8419 217.172 19.6708C216.896 19.5131 216.509 19.2725 216.024 18.9517C215.489 18.5989 215.112 18.2487 214.877 17.8772C214.658 17.535 214.452 17.0967 214.264 16.5754C214.072 16.0408 213.973 15.4608 213.973 14.8567C213.973 13.1887 214.636 11.7774 215.947 10.6574C217.295 9.55339 218.961 8.99741 220.906 8.99741C222.5 8.99741 223.937 9.36361 225.175 10.0827C226.427 10.8097 227.363 11.8335 227.954 13.1246L228.107 13.456L225.29 15.0946L225.116 14.6642C224.464 13.0363 223.086 12.2451 220.903 12.2451C219.847 12.2451 218.961 12.491 218.269 12.9749C217.613 13.4346 217.292 14.0521 217.292 14.862C217.292 16.1264 218.515 17.0886 220.927 17.7195C221.652 17.8959 222.147 18.0189 222.385 18.083C222.618 18.1472 223.054 18.2835 223.757 18.508C224.469 18.7352 224.956 18.9277 225.247 19.0961C225.517 19.2511 225.895 19.4864 226.395 19.8151C226.932 20.168 227.307 20.5208 227.542 20.8897C227.762 21.2345 227.968 21.6702 228.155 22.1915C228.347 22.7287 228.446 23.3088 228.446 23.9102C228.446 25.661 227.74 27.1045 226.344 28.1951C225.036 29.2643 223.279 29.8069 221.131 29.8069L221.136 29.8042ZM214.272 25.1772C214.786 26.2705 215.61 27.1713 216.725 27.8583C217.953 28.6174 219.437 28.9996 221.136 28.9996C223.094 28.9996 224.68 28.5158 225.849 27.5616C227.064 26.61 227.649 25.4151 227.649 23.9022C227.649 23.3916 227.566 22.9025 227.406 22.4534C227.24 21.9883 227.061 21.6061 226.874 21.312C226.702 21.0447 226.395 20.7614 225.959 20.4754C225.472 20.1573 225.111 19.9301 224.854 19.7831C224.613 19.6467 224.164 19.4703 223.517 19.2618C222.832 19.0426 222.393 18.9063 222.177 18.8475C221.952 18.786 221.454 18.6604 220.737 18.4893C217.921 17.7516 216.495 16.53 216.495 14.854C216.495 13.7794 216.939 12.9241 217.811 12.312C218.64 11.7319 219.681 11.4379 220.906 11.4379C223.23 11.4379 224.83 12.2799 225.673 13.9425L227.066 13.1326C226.542 12.1462 225.772 11.3523 224.774 10.775C223.658 10.1281 222.356 9.79931 220.906 9.79931C219.151 9.79931 217.656 10.2965 216.463 11.2748C215.329 12.2425 214.775 13.4159 214.775 14.8593C214.775 15.3726 214.858 15.8591 215.019 16.3081C215.184 16.7732 215.364 17.1581 215.551 17.4495C215.722 17.7195 216.03 18.0002 216.466 18.2862C216.939 18.5962 217.311 18.8315 217.57 18.9785C217.739 19.0747 218.108 19.2431 218.908 19.4997C219.574 19.7136 220.023 19.8526 220.248 19.914C220.475 19.9782 220.973 20.1011 221.687 20.2749C224.504 21.0126 225.929 22.2342 225.929 23.9102C225.929 25.0703 225.456 25.9577 224.52 26.5405C223.645 27.0884 222.506 27.3638 221.136 27.3638C219.766 27.3638 218.611 27.0537 217.621 26.4442C216.76 25.9123 216.118 25.204 215.709 24.3352L214.272 25.1799V25.1772Z" fill="white"/>
<path d="M241.66 28.7484C236.214 25.7118 236.161 22.3411 236.859 20.2749C237.156 19.3928 237.656 18.5909 238.306 17.92C243.057 13.015 243.947 9.82069 244.105 8.58843C244.137 8.32647 244.439 8.19816 244.653 8.35053C246.94 9.99176 248.077 12.892 248.487 14.167C248.577 14.4504 248.96 14.4958 249.112 14.2419C249.487 13.6137 249.778 12.7182 249.944 12.1302C250.019 11.8682 250.354 11.7907 250.535 11.9939C253.793 15.6318 254.821 18.9838 254.984 21.5366C255.19 24.7495 253.192 27.6952 250.142 28.7404C249.762 28.8713 249.412 28.9729 249.104 29.0531C248.773 29.1386 248.532 28.743 248.759 28.4864C250.693 26.3079 249.396 24.2764 249.396 24.2764C247.328 21.6087 246.973 19.3206 246.93 18.2968C246.919 18.0376 246.636 17.8852 246.411 18.0135C239.935 21.6809 241.168 26.2919 242.136 28.2993C242.284 28.604 241.952 28.9168 241.658 28.7537L241.66 28.7484Z" fill="white"/>
</g>
<defs>
<clipPath id="clip0_1281_2965">
<rect width="255" height="37" fill="white"/>
</clipPath>
</defs>
</svg>
