<svg width="39" height="41" viewBox="0 0 39 41" fill="none" xmlns="http://www.w3.org/2000/svg">
<path d="M37.9763 17.0853L37.9763 17.0852L1.19597 18.6926L1.01759 18.8672C1.01759 18.8672 1.01759 18.8672 1.01759 18.8672C1.19661 19.0501 1.43328 19.1432 1.67055 19.1432C1.90782 19.1432 2.14449 19.0501 2.32352 18.8672L3.90693 17.2498V34.1334C3.90693 37.5015 6.59015 40.25 9.90017 40.25H28.9734C32.2834 40.25 34.9666 37.5015 34.9666 34.1334V16.6965L36.6825 18.4163C37.0456 18.7805 37.6322 18.7747 37.9884 18.404C38.3419 18.0363 38.3364 17.4464 37.9763 17.0853ZM5.74723 34.1343V15.3692L17.2803 3.59011L17.2803 3.5901C18.5393 2.30408 20.5961 2.29423 21.867 3.56801L22.0439 3.39144L21.867 3.56802L33.1255 14.8516V33.5214L33.1247 33.5205V34.1343C33.1247 36.4804 31.2573 38.3809 28.9726 38.3809H9.89936C7.61539 38.3809 5.74723 36.4811 5.74723 34.1343Z" fill="white" stroke="white" stroke-width="0.5"/>
</svg>
