<svg width="26" height="27" viewBox="0 0 26 27" fill="none" xmlns="http://www.w3.org/2000/svg">
<path d="M10.4585 14.6581C10.9698 15.3417 11.6222 15.9074 12.3714 16.3167C13.1206 16.726 13.9491 16.9694 14.8006 17.0304C15.6521 17.0914 16.5068 16.9685 17.3067 16.6701C18.1065 16.3718 18.8329 15.9049 19.4364 15.3011L23.0086 11.729C24.0931 10.6061 24.6931 9.10222 24.6796 7.54122C24.666 5.98022 24.0399 4.48699 22.9361 3.38316C21.8322 2.27932 20.339 1.65319 18.778 1.63963C17.217 1.62606 15.7131 2.22615 14.5903 3.31064L12.5422 5.34675" stroke="black" stroke-width="2" stroke-linecap="round" stroke-linejoin="round"/>
<path d="M15.2213 12.2767C14.71 11.593 14.0576 11.0274 13.3084 10.6181C12.5592 10.2088 11.7307 9.96536 10.8792 9.90437C10.0277 9.84339 9.17299 9.96625 8.37313 10.2646C7.57326 10.563 6.84691 11.0299 6.24336 11.6337L2.67123 15.2058C1.58674 16.3287 0.98666 17.8325 1.00023 19.3935C1.01379 20.9545 1.63992 22.4478 2.74375 23.5516C3.84759 24.6554 5.34081 25.2816 6.90181 25.2951C8.46281 25.3087 9.96669 24.7086 11.0895 23.6241L13.1257 21.588" stroke="black" stroke-width="2" stroke-linecap="round" stroke-linejoin="round"/>
</svg>
