<svg width="38" height="41" viewBox="0 0 38 41" fill="none" xmlns="http://www.w3.org/2000/svg">
<path d="M8.853 11.1993C8.853 16.961 13.5254 21.6486 19.2699 21.6486C25.0153 21.6486 29.6869 16.961 29.6869 11.1993C29.6869 5.43764 25.0153 0.75 19.2699 0.75C13.5246 0.75 8.853 5.43764 8.853 11.1993ZM10.6444 11.2001C10.6444 6.42808 14.515 2.54637 19.2699 2.54637C24.0249 2.54637 27.8954 6.42808 27.8954 11.2001C27.8954 15.9722 24.0249 19.8539 19.2699 19.8539C14.515 19.8539 10.6444 15.9722 10.6444 11.2001Z" fill="white" stroke="white" stroke-width="0.5"/>
<path d="M0.75 39.7712V39.5212V37.5941C0.75 34.9547 1.53093 32.4086 3.0096 30.2301M0.75 39.7712L19.3555 23.5318L18.9884 23.5269V23.5269L18.9818 23.5269L18.6147 23.5318C18.6147 23.5318 18.6146 23.5318 18.6146 23.5318C18.6146 23.5318 18.6145 23.5318 18.6145 23.5318C18.4085 23.5344 13.7704 23.614 9.02286 25.4441C6.57286 26.388 4.49332 28.0433 3.0096 30.2301M0.75 39.7712H1H36.9694H36.9702H37.2202V39.5212V37.5941C37.2202 34.9547 36.4384 32.4077 34.9606 30.2301L34.7537 30.3705M0.75 39.7712L18.6178 23.7818C18.4241 23.7842 13.8201 23.8627 9.11274 25.6773C6.71064 26.6029 4.67176 28.2256 3.21645 30.3705M3.0096 30.2301L3.21645 30.3705M3.0096 30.2301L3.21645 30.3705M3.21645 30.3705C1.76599 32.5074 1 35.0046 1 37.5941V39.2712V39.5212H1.25H36.7202H36.9694H36.9702V39.2712V37.5941C36.9702 35.0046 36.2034 32.5066 34.7537 30.3705M34.7537 30.3705L34.9606 30.2301C33.4769 28.0442 31.3973 26.388 28.9473 25.4441M34.7537 30.3705L28.9473 25.4441M28.9473 25.4441C24.1997 23.614 19.5617 23.5344 19.3556 23.5318L28.9473 25.4441ZM35.4279 37.5941V37.9757H18.6994H2.54145V37.5941C2.54145 32.9711 5.40611 28.762 9.66513 27.1204C11.8838 26.2655 14.1171 25.8168 15.8038 25.5822C16.6465 25.465 17.3512 25.4015 17.8473 25.3672C18.0954 25.3501 18.2912 25.3403 18.4259 25.3348C18.4932 25.332 18.5453 25.3304 18.581 25.3294C18.6112 25.3285 18.628 25.3283 18.6327 25.3282C18.6338 25.3282 18.6342 25.3281 18.634 25.3282L18.6368 25.3281L18.9851 25.3241L19.3309 25.3281L19.331 25.3281C19.3312 25.3281 19.3314 25.3281 19.3317 25.3281C19.4089 25.3295 23.8824 25.4155 28.3042 27.1203L28.3941 26.8871L28.3042 27.1203C32.5624 28.762 35.4279 32.9711 35.4279 37.5941Z" fill="white" stroke="white" stroke-width="0.5"/>
</svg>
