<svg width="41" height="41" viewBox="0 0 41 41" fill="none" xmlns="http://www.w3.org/2000/svg">
<path d="M39.3498 38.4383H38.597V14.0199C38.597 12.2525 37.1712 10.8121 35.4147 10.8121H30.5986C28.8412 10.8121 27.4164 12.2534 27.4164 14.0199V38.4383H26.0903V3.95781C26.0903 2.19036 24.6646 0.75 22.908 0.75H18.092C16.3354 0.75 14.9097 2.19122 14.9097 3.95781V38.4383H13.5836V21.385C13.5836 19.6175 12.1579 18.1772 10.4014 18.1772H5.58527C3.82784 18.1772 2.40303 19.6184 2.40303 21.385V38.4383H1.65016C1.15083 38.4383 0.75 38.8458 0.75 39.3442C0.75 39.8425 1.15083 40.25 1.65016 40.25H39.3498C39.8492 40.25 40.25 39.8425 40.25 39.3442C40.25 38.8458 39.8492 38.4383 39.3498 38.4383ZM4.20336 38.4383V21.385C4.20336 20.6135 4.82572 19.9888 5.58527 19.9888H10.4014C11.1609 19.9888 11.7833 20.6135 11.7833 21.385V38.4383H4.20336ZM16.71 38.4383V3.95781C16.71 3.18632 17.3324 2.56167 18.092 2.56167H22.908C23.6676 2.56167 24.2899 3.18632 24.2899 3.95781V38.4383H16.71ZM29.2167 38.4383V14.0199C29.2167 13.2485 29.8391 12.6238 30.5986 12.6238H35.4147C36.1743 12.6238 36.7966 13.2485 36.7966 14.0199V38.4383H29.2167Z" fill="white" stroke="white" stroke-width="0.5"/>
</svg>
