<svg width="39" height="39" viewBox="0 0 39 39" fill="none" xmlns="http://www.w3.org/2000/svg">
<g clip-path="url(#clip0_993_4347)">
<path d="M25.155 27.924C22.0208 30.3587 18.0764 31.5073 14.1251 31.136C10.1737 30.7646 6.51246 28.9011 3.88681 25.925C1.26115 22.9489 -0.131475 19.084 -0.00751864 15.1172C0.116438 11.1503 1.74766 7.37988 4.554 4.57354C7.36035 1.76719 11.1308 0.135969 15.0976 0.0120126C19.0645 -0.111944 22.9294 1.28068 25.9055 3.90634C28.8816 6.53199 30.745 10.1932 31.1164 14.1446C31.4878 18.096 30.3392 22.0403 27.9045 25.1745L38.337 35.568L35.568 38.337L25.1745 27.924H25.155ZM15.6 27.3C17.1365 27.3 18.6579 26.9974 20.0774 26.4094C21.4969 25.8214 22.7867 24.9596 23.8731 23.8732C24.9596 22.7867 25.8214 21.4969 26.4094 20.0774C26.9974 18.6579 27.3 17.1365 27.3 15.6C27.3 14.0636 26.9974 12.5421 26.4094 11.1226C25.8214 9.70311 24.9596 8.41331 23.8731 7.32687C22.7867 6.24042 21.4969 5.37861 20.0774 4.79063C18.6579 4.20265 17.1365 3.90002 15.6 3.90002C12.497 3.90002 9.52101 5.13269 7.32684 7.32687C5.13266 9.52104 3.89999 12.497 3.89999 15.6C3.89999 18.7031 5.13266 21.679 7.32684 23.8732C9.52101 26.0673 12.497 27.3 15.6 27.3Z" fill="#737373"/>
</g>
<defs>
<clipPath id="clip0_993_4347">
<rect width="39" height="39" fill="white"/>
</clipPath>
</defs>
</svg>
