<svg width="20" height="12" viewBox="0 0 20 12" fill="none" xmlns="http://www.w3.org/2000/svg">
<path d="M19.1334 2H0.866551C0.636727 2 0.416317 1.89464 0.253807 1.70711C0.0912972 1.51957 0 1.26522 0 1C0 0.734784 0.0912972 0.48043 0.253807 0.292893C0.416317 0.105357 0.636727 0 0.866551 0H19.1334C19.3633 0 19.5837 0.105357 19.7462 0.292893C19.9087 0.48043 20 0.734784 20 1C20 1.26522 19.9087 1.51957 19.7462 1.70711C19.5837 1.89464 19.3633 2 19.1334 2Z" fill="#CC2222"/>
<path d="M12.1725 7H0.827498C0.608032 7 0.397555 6.89464 0.242369 6.70711C0.0871828 6.51957 0 6.26522 0 6C0 5.73478 0.0871828 5.48043 0.242369 5.29289C0.397555 5.10536 0.608032 5 0.827498 5H12.1725C12.392 5 12.6024 5.10536 12.7576 5.29289C12.9128 5.48043 13 5.73478 13 6C13 6.26522 12.9128 6.51957 12.7576 6.70711C12.6024 6.89464 12.392 7 12.1725 7Z" fill="#CC2222"/>
<path d="M6.15459 12H0.845411C0.621194 12 0.40616 11.8946 0.247615 11.7071C0.08907 11.5196 0 11.2652 0 11C0 10.7348 0.08907 10.4804 0.247615 10.2929C0.40616 10.1054 0.621194 10 0.845411 10H6.15459C6.37881 10 6.59384 10.1054 6.75238 10.2929C6.91093 10.4804 7 10.7348 7 11C7 11.2652 6.91093 11.5196 6.75238 11.7071C6.59384 11.8946 6.37881 12 6.15459 12Z" fill="#CC2222"/>
</svg>
