<svg width="20" height="12" viewBox="0 0 20 12" fill="none" xmlns="http://www.w3.org/2000/svg">
<path d="M19.1334 10H0.866551C0.636727 10 0.416317 10.1054 0.253807 10.2929C0.0912972 10.4804 0 10.7348 0 11C0 11.2652 0.0912972 11.5196 0.253807 11.7071C0.416317 11.8946 0.636727 12 0.866551 12H19.1334C19.3633 12 19.5837 11.8946 19.7462 11.7071C19.9087 11.5196 20 11.2652 20 11C20 10.7348 19.9087 10.4804 19.7462 10.2929C19.5837 10.1054 19.3633 10 19.1334 10Z" fill="#CC2222"/>
<path d="M12.1725 5H0.827498C0.608032 5 0.397555 5.10536 0.242369 5.29289C0.0871828 5.48043 0 5.73478 0 6C0 6.26522 0.0871828 6.51957 0.242369 6.70711C0.397555 6.89464 0.608032 7 0.827498 7H12.1725C12.392 7 12.6024 6.89464 12.7576 6.70711C12.9128 6.51957 13 6.26522 13 6C13 5.73478 12.9128 5.48043 12.7576 5.29289C12.6024 5.10536 12.392 5 12.1725 5Z" fill="#CC2222"/>
<path d="M6.15459 0H0.845411C0.621194 0 0.40616 0.105356 0.247615 0.292892C0.08907 0.480429 0 0.734784 0 1C0 1.26522 0.08907 1.51957 0.247615 1.70711C0.40616 1.89464 0.621194 2 0.845411 2H6.15459C6.37881 2 6.59384 1.89464 6.75238 1.70711C6.91093 1.51957 7 1.26522 7 1C7 0.734784 6.91093 0.480429 6.75238 0.292892C6.59384 0.105356 6.37881 0 6.15459 0Z" fill="#CC2222"/>
</svg>
