<svg width="19" height="22" viewBox="0 0 19 22" fill="none" xmlns="http://www.w3.org/2000/svg">
<path d="M5.66029 20.7483C0.214265 17.7118 0.160765 14.3411 0.858904 12.2749C1.15581 11.3928 1.65601 10.5909 2.306 9.91992C7.05655 5.01492 7.9473 1.82066 8.10511 0.588396C8.13721 0.32644 8.43947 0.198134 8.65346 0.350496C10.9405 1.99173 12.0773 4.89196 12.4865 6.167C12.5775 6.45034 12.96 6.49578 13.1124 6.24184C13.4869 5.61368 13.7785 4.71822 13.9443 4.13015C14.0192 3.8682 14.3536 3.79068 14.5355 3.99383C17.7935 7.63181 18.8206 10.9838 18.9838 13.5365C19.1897 16.7495 17.1916 19.6952 14.1423 20.7403C13.7624 20.8713 13.412 20.9729 13.1044 21.0531C12.7727 21.1386 12.532 20.743 12.7594 20.4864C14.6933 18.3079 13.396 16.2764 13.396 16.2764C11.3283 13.6087 10.9726 11.3206 10.9298 10.2968C10.9191 10.0375 10.6355 9.88517 10.4108 10.0135C3.935 13.6809 5.1681 18.2918 6.1364 20.2993C6.28352 20.604 5.95184 20.9167 5.65761 20.7537L5.66029 20.7483Z" fill="white"/>
</svg>
